#!OML:ASF I:\Actors\actors\Patient Classification 2\Patient 1\Session 1\actor1.ASF
:FULLY-SPECIFIED
:DEGREES
328
root -0.547913 18.5845 4.46675 2.63402 -7.12012 -1.94499
lowerback 35.5461 0.638552 0.0102432
upperback 14.1423 0.775363 2.10318
thorax -2.37315 0.223993 1.93999
lowerneck -9.60747 -1.32857 -0.19794
upperneck 23.22 -2.66571 3.54497
head 8.88597 -0.909241 0.957413
rclavicle -3.47873e-014 -2.36554e-014
rhumerus -7.53008 67.9707 -91.407
rradius 145.709
rwrist -7.91389
rhand -39.6912 -36.054
rfingers 7.12502
rthumb -12.6701 -65.6497
lclavicle -3.47873e-014 -2.36554e-014
lhumerus 4.71474 -68.804 88.9692
lradius 139.208
lwrist 23.9237
lhand -35.3093 -59.3592
lfingers 7.12502
lthumb -8.4433 -29.548
rfemur -7.09613 4.56808 15.6302
rtibia 14.1448
rfoot -16.6921 -10.4758
rtoes -12.0277
lfemur -15.957 3.71539 -12.497
ltibia 31.5168
lfoot -18.7607 9.41435
ltoes -56.0231
329
root -0.547785 18.5859 4.47282 2.6433 -7.13792 -1.94305
lowerback 35.4804 0.672437 0.00407502
upperback 14.1158 0.81806 2.1447
thorax -2.38211 0.243324 1.97282
lowerneck -9.77144 -1.36787 -0.129092
upperneck 23.076 -2.69432 3.4009
head 8.86463 -0.930812 0.89236
rclavicle -8.15017e-015 8.54774e-015
rhumerus -6.74579 67.7437 -90.653
rradius 145.798
rwrist -7.9774
rhand -39.4691 -36.3752
rfingers 7.12502
rthumb -12.456 -65.984
lclavicle -8.15017e-015 8.54774e-015
lhumerus 5.40021 -68.7489 88.4391
lradius 139.145
lwrist 23.798
lhand -35.2777 -59.204
lfingers 7.12502
lthumb -8.41281 -29.3915
rfemur -7.04416 4.58888 15.6276
rtibia 14.0545
rfoot -16.6759 -10.4937
rtoes -11.6933
lfemur -15.9163 3.69967 -12.4979
ltibia 31.4669
lfoot -18.7937 9.48185
ltoes -56.0444
330
root -0.548193 18.5871 4.48029 2.66874 -7.15529 -1.96488
lowerback 35.3817 0.712013 -0.00139629
upperback 14.0984 0.868336 2.19949
thorax -2.37068 0.26571 2.01693
lowerneck -9.95776 -1.37773 -0.228016
upperneck 22.9916 -2.72515 3.56215
head 8.87483 -0.936103 0.959107
rclavicle -2.38542e-015 4.57205e-015
rhumerus -5.94889 67.4473 -89.9098
rradius 145.873
rwrist -8.14801
rhand -39.216 -36.443
rfingers 7.12502
rthumb -12.2119 -66.0665
lclavicle -2.38542e-015 4.57205e-015
lhumerus 6.03262 -68.7047 87.9641
lradius 139.126
lwrist 23.7366
lhand -35.1955 -59.1021
lfingers 7.12502
lthumb -8.33348 -29.2864
rfemur -7.00086 4.63328 15.6515
rtibia 13.9644
rfoot -16.6613 -10.5418
rtoes -11.7136
lfemur -15.8851 3.70112 -12.4762
ltibia 31.4219
lfoot -18.8219 9.518
ltoes -56.0356
331
root -0.547846 18.5884 4.48824 2.67469 -7.1571 -1.96104
lowerback 35.2888 0.736622 -0.0243641
upperback 14.1055 0.893199 2.23601
thorax -2.33358 0.275547 2.05957
lowerneck -10.1938 -1.38412 -0.563211
upperneck 22.9106 -2.77618 4.02492
head 8.90362 -0.939599 1.16587
rclavicle -1.88845e-014 5.96354e-015
rhumerus -5.12155 67.1898 -89.2102
rradius 145.953
rwrist -8.50863
rhand -39.0297 -36.3734
rfingers 7.12502
rthumb -12.0323 -66.0075
lclavicle -1.88845e-014 5.96354e-015
lhumerus 6.84343 -68.5964 87.2778
lradius 139.117
lwrist 23.661
lhand -35.0843 -59.0717
lfingers 7.12502
lthumb -8.2261 -29.2519
rfemur -6.93776 4.6981 15.6435
rtibia 13.8869
rfoot -16.6772 -10.6055
rtoes -11.8853
lfemur -15.8455 3.68217 -12.4845
ltibia 31.3893
lfoot -18.8603 9.52852
ltoes -56.0124
332
root -0.543627 18.5893 4.49733 2.66741 -7.15618 -1.89584
lowerback 35.1967 0.729739 -0.0386788
upperback 14.1182 0.879603 2.23024
thorax -2.28787 0.268928 2.06598
lowerneck -10.2729 -1.41855 -0.476327
upperneck 22.5706 -2.80217 3.92326
head 8.79962 -0.958179 1.11159
rclavicle -1.39149e-014 -1.0138e-014
rhumerus -4.3808 67.1482 -88.6071
rradius 145.821
rwrist -7.96538
rhand -38.9797 -36.1489
rfingers 7.12502
rthumb -11.9841 -65.7858
lclavicle -1.39149e-014 -1.0138e-014
lhumerus 7.78222 -68.4604 86.4632
lradius 139.061
lwrist 23.5855
lhand -35.0693 -59.095
lfingers 7.12502
lthumb -8.21169 -29.2746
rfemur -6.87428 4.68523 15.5526
rtibia 13.8214
rfoot -16.682 -10.5835
rtoes -11.671
lfemur -15.804 3.60964 -12.5784
ltibia 31.372
lfoot -18.913 9.58339
ltoes -56.0292
333
root -0.539085 18.5894 4.50445 2.65775 -7.13558 -1.84872
lowerback 35.1343 0.707249 -0.0205373
upperback 14.1148 0.858043 2.22927
thorax -2.26912 0.259758 2.06263
lowerneck -10.4193 -1.42986 -0.293659
upperneck 22.3562 -2.79365 3.6996
head 8.74748 -0.962577 1.00405
rclavicle -3.77691e-015 -4.37326e-015
rhumerus -3.66549 67.1171 -88.0346
rradius 145.717
rwrist -7.57787
rhand -38.9699 -36.1369
rfingers 7.12502
rthumb -11.9746 -65.7744
lclavicle -3.77691e-015 -4.37326e-015
lhumerus 8.65904 -68.3661 85.7462
lradius 138.975
lwrist 23.5514
lhand -35.1535 -59.1018
lfingers 7.12502
lthumb -8.29294 -29.2846
rfemur -6.819 4.61049 15.4867
rtibia 13.7682
rfoot -16.6619 -10.5277
rtoes -11.4161
lfemur -15.7738 3.5922 -12.6525
ltibia 31.364
lfoot -18.9079 9.60439
ltoes -56.1065
334
root -0.537525 18.5894 4.51085 2.63574 -7.13386 -1.84686
lowerback 35.1006 0.705592 -0.012109
upperback 14.106 0.860396 2.25492
thorax -2.26769 0.260396 2.08432
lowerneck -10.5797 -1.43268 -0.197119
upperneck 22.1827 -2.78332 3.58007
head 8.71467 -0.962251 0.946782
rclavicle 8.34896e-015 8.34896e-015
rhumerus -3.07683 67.0663 -87.5548
rradius 145.667
rwrist -7.35377
rhand -38.9214 -35.9825
rfingers 7.12502
rthumb -11.9279 -65.6227
lclavicle 8.34896e-015 8.34896e-015
lhumerus 9.40417 -68.2454 85.1453
lradius 138.92
lwrist 23.4824
lhand -35.1365 -58.9605
lfingers 7.12502
lthumb -8.27653 -29.1426
rfemur -6.75031 4.63239 15.4831
rtibia 13.725
rfoot -16.6685 -10.5287
rtoes -11.2821
lfemur -15.7248 3.63842 -12.6614
ltibia 31.3588
lfoot -18.8911 9.54619
ltoes -56.1592
